inDegrees=no
num_controls=7
num_derivatives=13
num_iterations=103
num_multipliers=7
num_parameters=0
num_slacks=7
num_states=26
objective=0.542358
objective_accelerations=0.039572
objective_balance=0.003919
objective_effort=0.042333
objective_height=0.447168
objective_ligament=0.009366
solver_duration=1052.010079
status=Solve_Succeeded
success=true
DataType=double
version=3
OpenSimVersion=4.5
endheader
time	/jointset/ground_pelvis/pelvis_tilt/value	/jointset/ground_pelvis/pelvis_tx/value	/jointset/ground_pelvis/pelvis_ty/value	/jointset/hip_r/hip_flexion_r/value	/jointset/hip_r/hip_adduction_r/value	/jointset/hip_r/hip_rotation_r/value	/jointset/back/lumbar_extension/value	/jointset/patellofemoral_r/patellar_flexion_r/value	/jointset/knee_r/knee_flexion_r/value	/jointset/knee_r/knee_adduction_r/value	/jointset/knee_r/knee_rotation_r/value	/jointset/ankle_r/ankle_angle_r/value	/jointset/subtalar_r/subtalar_angle_r/value	/jointset/ground_pelvis/pelvis_tilt/speed	/jointset/ground_pelvis/pelvis_tx/speed	/jointset/ground_pelvis/pelvis_ty/speed	/jointset/hip_r/hip_flexion_r/speed	/jointset/hip_r/hip_adduction_r/speed	/jointset/hip_r/hip_rotation_r/speed	/jointset/back/lumbar_extension/speed	/jointset/patellofemoral_r/patellar_flexion_r/speed	/jointset/knee_r/knee_flexion_r/speed	/jointset/knee_r/knee_adduction_r/speed	/jointset/knee_r/knee_rotation_r/speed	/jointset/ankle_r/ankle_angle_r/speed	/jointset/subtalar_r/subtalar_angle_r/speed	/forceset/tau_hip_flexion_r	/forceset/tau_hip_adduction_r	/forceset/tau_hip_rotation_r	/forceset/tau_knee_flexion_r	/forceset/tau_ankle_angle_r	/forceset/tau_subtalar_angle_r	/forceset/tau_lumbar_extension	lambda_cid13_p0	lambda_cid14_p0	lambda_cid14_p1	lambda_cid14_p2	lambda_cid14_p3	lambda_cid14_p4	lambda_cid14_p5	/jointset/ground_pelvis/pelvis_tilt/accel	/jointset/ground_pelvis/pelvis_tx/accel	/jointset/ground_pelvis/pelvis_ty/accel	/jointset/hip_r/hip_flexion_r/accel	/jointset/hip_r/hip_adduction_r/accel	/jointset/hip_r/hip_rotation_r/accel	/jointset/back/lumbar_extension/accel	/jointset/patellofemoral_r/patellar_flexion_r/accel	/jointset/knee_r/knee_flexion_r/accel	/jointset/knee_r/knee_adduction_r/accel	/jointset/knee_r/knee_rotation_r/accel	/jointset/ankle_r/ankle_angle_r/accel	/jointset/subtalar_r/subtalar_angle_r/accel	gamma_cid13_p0	gamma_cid14_p0	gamma_cid14_p1	gamma_cid14_p2	gamma_cid14_p3	gamma_cid14_p4	gamma_cid14_p5
1	-0.4157100148193947	-0.05369833641320455	0.6938952500279687	1.508218963367585	-0.2312285087928602	-0.05808885187851508	-0.4362895464061769	1.179129766575598	1.179129766575183	-0.02766377801121818	0.174517793922971	0.2744002083100275	0.05697018752251157	0.0004615938519627965	0.002885753176350769	0.01307028090436883	-0.03665467793675198	0.0007838534056714456	-0.00798722115240953	-0.0006392398993000981	-0.0431341096059813	-0.04313410960598776	0.002705399214156272	7.754339586269829e-05	-0.008354112673763207	-0.00124805174629938	-0.3491796156412896	0.01465924210633816	0.01209978738428409	-0.3953524992272744	0.07198992183900657	-0.004792235468108425	0.3366531302767928	-2.306460766479558	-25.80577926542029	-6.232469155461425	1.03415941291376	11.54499394321201	-785.4934124083841	48.74075350061711	1.811374665185777	0.2577395970129644	1.459335017492781	-5.365954982659707	0.06957958794566933	-0.7489458972563402	-0.04573322532436714	-4.165769265391209	-4.165769265390976	0.2907994972913251	0.004110637285448097	-0.7476515348485002	-0.1118749381332655	6.69263545804685e-10	-2.61291524662245e-10	6.36800597850553e-09	7.472465169430022e-09	1.917075498644847e-09	-3.346178744835649e-09	6.097058169732725e-09
1.01	-0.4156156456580364	-0.05365661949113506	0.6940987967854287	1.507585061517587	-0.231217072924856	-0.05820564675758203	-0.4362972090818809	1.178490152637084	1.178490152636813	-0.02762190541978659	0.1745183395014364	0.2742791881600331	0.05695223647758194	0.01840787141023129	0.005459881796168775	0.02764003159738789	-0.09013018731847573	0.001505635910588913	-0.01537247880652687	-0.0008774218416645631	-0.08480512478785338	-0.08480512478786351	0.005670352963658117	2.86758986408542e-05	-0.01585773480354753	-0.002341257046207149	-0.3491787189348643	0.01472656672936751	0.01211016847486244	-0.3952074514319439	0.07197790588230946	-0.004823201501039123	0.3367052911685824	-2.328858348908642	-25.81193089464811	-6.246086923261256	1.03529347848275	11.52656725981084	-785.523780907567	48.70931826537058	1.785599635158977	0.2575874062998628	1.455937985928516	-5.339022961102847	0.07382728326096245	-0.7334246761073779	-0.01047966859964404	-4.170234812103012	-4.170234812103676	0.2995302378261223	-0.009817425391618534	-0.7528907374302727	-0.1079048886352941	8.183172904270885e-10	-1.518774047170346e-11	1.29939776272141e-08	1.113932088354281e-08	1.643321643359661e-09	-6.274005269807196e-09	1.022119783788098e-08
1.02	-0.415341944654302	-0.05358909370050031	0.6944480696279637	1.50641626976473	-0.2311983492915101	-0.05839631600849352	-0.4363067773749727	1.177433335113242	1.177433335113127	-0.02755034590606185	0.1745183100085175	0.2740828971516632	0.05692338106711001	0.03632796232897037	0.008047526889400344	0.04221549791936422	-0.1436326585071542	0.002241406475345903	-0.02276209552535529	-0.001020363380305855	-0.1265748266704389	-0.1265748266704559	0.008642783675029289	-3.747088520387177e-05	-0.02340828434880855	-0.003428924854748472	-0.3491778222284435	0.01479389135241936	0.01212054956537367	-0.3950624036366169	0.07196588992561821	-0.004854167533936703	0.3367574520603622	-2.366080407988044	-25.82610212056013	-6.258621130989267	1.033413121161973	11.51504439257607	-785.6849429226954	48.69105631344942	1.806137337279916	0.2604428916956528	1.460478143284228	-5.371347344050637	0.07237719991356655	-0.7498177101985459	-0.02668514457959782	-4.185506605533895	-4.185506605534308	0.2922948896652119	0.0006547799608821797	-0.7570370179438829	-0.11076743986	8.853863669149169e-10	9.55686723221996e-11	1.942365059211903e-08	1.420427352219548e-08	1.597825721388149e-09	-9.312357435739219e-09	1.391430554208374e-08
1.03	-0.4148891688144741	-0.05349558496748174	0.6949431152341353	1.504712271515293	-0.2311722479911453	-0.05866078568739026	-0.4363171200437714	1.175958278377047	1.175958278376273	-0.02744881182950609	0.1745175666946979	0.273810835165865	0.05688359786941652	0.0542231618667722	0.01066036936764723	0.05679358309074112	-0.1971762613448813	0.002976683016900221	-0.03012105618672503	-0.001014181160823085	-0.1684582453574617	-0.1684582453574548	0.01168562111454719	-0.0001115148677141492	-0.03101502766546981	-0.004533987116043975	-0.3490984901935611	0.01487328779575794	0.01214402514410232	-0.3947838799646595	0.07198467090974875	-0.00489625404458028	0.3368236391617135	-2.418498796451255	-25.82338118254043	-6.271434456744366	1.029757978122266	11.46600470436535	-785.7418377758565	48.66089267781993	1.780605274928869	0.2626276845384527	1.456465181629904	-5.34725693999524	0.07378131162489723	-0.7273190158829035	0.01936828812112372	-4.19301840924832	-4.193018409244309	0.3135204305852537	-0.01147857008615602	-0.7641311840700561	-0.1113102894483998	9.516188651564739e-10	2.049439894896056e-10	2.585132050923004e-08	1.726308429273122e-08	1.554658962001471e-09	-1.235183741433411e-08	1.760301496094012e-08
